<svg id="Layer_1" data-name="Layer 1" xmlns="http://www.w3.org/2000/svg" viewBox="0 0 60 35"><defs><style>.cls-1{fill:#313c53;}.cls-2{fill:#ff4437;}.cls-3{fill:#e8e8e3;}.cls-4{fill:#fff3f2;}.cls-5{fill:#242d3d;}.cls-6{fill:#ff4436;}</style></defs><title>icon-estate</title><g id="estate"><polygon class="cls-1" points="1 23.39 0.51 23.39 1.16 24.18 1.96 24.18 1.39 23.39 1 23.39"/><path class="cls-2" d="M18.37,25.43a5.93,5.93,0,0,0,.11-1.13A5.27,5.27,0,0,0,8,24.33a4.83,4.83,0,0,0,.09.94L2.9,24.51a2.64,2.64,0,0,1-1.42-.69L.34,22.77A1,1,0,0,1,0,22v-.77a.67.67,0,0,1,.32-.57l.56-.34h0L1.55,18l-.33-1.82s0-.54.92-1,5.95-3.81,5.95-3.81L7.55,11a.15.15,0,0,1,0-.28c2-.19,9-.85,13.12-.89,4.76-.06,10,.16,11.12.29s5.62,1.3,11.68,5.28c0,0,7.33.19,11.28,1.22s4.76,2.11,5,4.35c0,0,.28,3.67.16,3.71a21.7,21.7,0,0,1-5.18.79s.08-.94.08-1.47a5.12,5.12,0,0,0-10.24,0c0,.5,0,1.52,0,1.52"/><circle class="cls-1" cx="13.28" cy="24.18" r="3.99"/><circle class="cls-3" cx="13.28" cy="24.18" r="2.88"/><path class="cls-1" d="M14.85,24.76l.85,0a2.51,2.51,0,0,1-.16.46,2.14,2.14,0,0,1-.25.41L14.72,25A.16.16,0,0,1,14.85,24.76Z"/><path class="cls-1" d="M13.86,22.61l.05-.85a2.69,2.69,0,0,1,.45.16,2.8,2.8,0,0,1,.41.25l-.64.57A.16.16,0,0,1,13.86,22.61Z"/><path class="cls-1" d="M12.58,22.66,12,22a2.26,2.26,0,0,1,.9-.32l0,.85A.17.17,0,0,1,12.58,22.66Z"/><path class="cls-1" d="M10.86,23.56A2.51,2.51,0,0,1,11,23.1a2.8,2.8,0,0,1,.25-.41l.57.64a.16.16,0,0,1-.12.27"/><path class="cls-1" d="M14.8,23.48l.64-.57a2.62,2.62,0,0,1,.32.9l-.86,0A.17.17,0,0,1,14.8,23.48Z"/><path class="cls-1" d="M12.7,25.75l0,.85a2.51,2.51,0,0,1-.46-.16,3.45,3.45,0,0,1-.41-.25l.64-.57A.16.16,0,0,1,12.7,25.75Z"/><path class="cls-1" d="M14,25.7l.57.63a2.21,2.21,0,0,1-.9.32l0-.85A.16.16,0,0,1,14,25.7Z"/><path class="cls-1" d="M11.76,24.88l-.63.57a2.43,2.43,0,0,1-.32-.9l.85,0A.17.17,0,0,1,11.76,24.88Z"/><circle class="cls-1" cx="13.28" cy="24.18" r="0.47"/><circle class="cls-1" cx="14.09" cy="23.6" r="0.27"/><circle class="cls-1" cx="13.18" cy="23.17" r="0.27"/><circle class="cls-1" cx="13.32" cy="25.21" r="0.27"/><circle class="cls-1" cx="12.42" cy="24.77" r="0.27"/><circle class="cls-1" cx="12.32" cy="23.7" r="0.27"/><circle class="cls-1" cx="14.17" cy="24.58" r="0.27"/><circle class="cls-1" cx="49.77" cy="24.18" r="3.99"/><circle class="cls-3" cx="49.77" cy="24.18" r="2.88"/><path class="cls-1" d="M51.34,24.76l.86,0a2.54,2.54,0,0,1-.17.46,2.75,2.75,0,0,1-.24.41L51.21,25A.16.16,0,0,1,51.34,24.76Z"/><path class="cls-1" d="M50.36,22.61l0-.85a2.41,2.41,0,0,1,.45.16,2.36,2.36,0,0,1,.41.25l-.63.57A.16.16,0,0,1,50.36,22.61Z"/><path class="cls-1" d="M49.08,22.66,48.5,22a2.32,2.32,0,0,1,.9-.32l0,.85A.16.16,0,0,1,49.08,22.66Z"/><path class="cls-1" d="M47.35,23.56a2.54,2.54,0,0,1,.17-.46,2.75,2.75,0,0,1,.24-.41l.58.64a.16.16,0,0,1-.13.27"/><path class="cls-1" d="M51.29,23.48l.64-.57a2.62,2.62,0,0,1,.32.9l-.86,0A.17.17,0,0,1,51.29,23.48Z"/><path class="cls-1" d="M49.19,25.75l0,.85a2.41,2.41,0,0,1-.45-.16,2.36,2.36,0,0,1-.41-.25l.63-.57A.16.16,0,0,1,49.19,25.75Z"/><path class="cls-1" d="M50.47,25.7l.58.63a2.31,2.31,0,0,1-.91.32l0-.85A.16.16,0,0,1,50.47,25.7Z"/><path class="cls-1" d="M48.26,24.88l-.64.57a2.62,2.62,0,0,1-.32-.9l.86,0A.17.17,0,0,1,48.26,24.88Z"/><circle class="cls-1" cx="49.77" cy="24.18" r="0.47"/><circle class="cls-1" cx="50.58" cy="23.6" r="0.27"/><circle class="cls-1" cx="49.67" cy="23.17" r="0.27"/><circle class="cls-1" cx="49.82" cy="25.21" r="0.27"/><circle class="cls-1" cx="48.91" cy="24.77" r="0.27"/><circle class="cls-1" cx="48.82" cy="23.7" r="0.27"/><circle class="cls-1" cx="50.67" cy="24.58" r="0.27"/><path class="cls-4" d="M4.28,16.67c-.2.38-.53,1-.7,1.37a.42.42,0,0,1-.37.23H2.9A2.82,2.82,0,0,1,1.75,18l-.59-.25a.45.45,0,0,1-.27-.4,2,2,0,0,1,.33-1.25l2.89.22A.21.21,0,0,1,4.28,16.67Z"/><path class="cls-4" d="M59.22,19.74h-.38a.49.49,0,0,0-.38.17l-.16.2a.34.34,0,0,1-.32.13l-1.66-.17a1.07,1.07,0,0,1-.59-.27L54.4,18.57a.13.13,0,0,1,.07-.23,16.38,16.38,0,0,1,3.74.13A1.17,1.17,0,0,1,59.22,19.74Z"/><path class="cls-1" d="M59.58,22.84v.67a.86.86,0,0,1-.86.87H57.28A.29.29,0,0,1,57,24l.54-1.14a.67.67,0,0,1,.6-.38h1A.37.37,0,0,1,59.58,22.84Z"/><path class="cls-1" d="M4.75,15.37l36.83.49s-5.06-4-9.88-4.87-10.87-.25-14.47.08c-1.5.15-5.79.28-7.47,1.14S4.75,15.37,4.75,15.37Z"/><polygon class="cls-2" points="17.68 10.87 14.97 15.52 16.46 15.58 16.87 14.91 19.49 10.59 17.68 10.87"/><polygon class="cls-2" points="25.27 10.37 26.52 15.67 29.4 15.67 27.24 10.31 25.27 10.37"/><path class="cls-1" d="M44.64,24.68v-.06l-23.13-.41a2.58,2.58,0,0,1-2.19-1.29l-2.79-5.33a3,3,0,0,1,0-2.05l2.78-4.6A61.64,61.64,0,0,1,28,10.65v-.06a60,60,0,0,0-8.76.29h0l-2.8,4.62a3.06,3.06,0,0,0,0,2.11L19.26,23a2.7,2.7,0,0,0,2.25,1.33Z"/><path class="cls-1" d="M28.64,24.37A39.84,39.84,0,0,0,28.89,20,9.43,9.43,0,0,0,28,15.63l-1.66-5.05-.06,0L28,15.65A9.52,9.52,0,0,1,28.82,20c0,2.72-.24,4.34-.24,4.36Z"/><polygon class="cls-5" points="39.72 14.55 39.15 15.84 41.58 15.86 40.76 15.26 39.72 14.55"/><path class="cls-1" d="M42.54,24.61s.24-3.52.24-6.09a3.63,3.63,0,0,0-1.21-2.68h0l-25-.34v.07l25,.33a3.63,3.63,0,0,1,1.18,2.63c0,2.57-.24,6.05-.24,6.08Z"/><ellipse class="cls-6" cx="38.84" cy="15.04" rx="0.7" ry="0.94" transform="translate(18.8 51.55) rotate(-82.41)"/></g></svg>